<?xml version="1.0" standalone="no"?>
<!DOCTYPE svg PUBLIC "-//W3C//DTD SVG 20010904//EN"
 "http://www.w3.org/TR/2001/REC-SVG-20010904/DTD/svg10.dtd">
<svg version="1.0" xmlns="http://www.w3.org/2000/svg"
 width="700.000000pt" height="700.000000pt" viewBox="0 0 700.000000 700.000000"
 preserveAspectRatio="xMidYMid meet">
<metadata>
Created by potrace 1.14, written by Peter Selinger 2001-2017
</metadata>
<g transform="translate(0.000000,700.000000) scale(0.100000,-0.100000)"
fill="#000000" stroke="none">
<path d="M3215 6985 c-234 -33 -412 -88 -631 -196 -106 -52 -294 -169 -363
-225 -174 -141 -311 -277 -438 -434 -61 -76 -213 -294 -213 -307 0 -3 -6 -14
-14 -22 -22 -26 -124 -219 -166 -316 -12 -27 -31 -68 -41 -89 -11 -22 -19 -45
-19 -50 0 -6 -7 -24 -15 -40 -44 -83 -153 -464 -184 -641 -6 -33 -13 -69 -15
-80 -2 -11 -7 -42 -10 -70 -4 -27 -9 -63 -12 -79 -15 -90 -28 -317 -28 -491 0
-200 9 -346 30 -495 3 -25 8 -60 10 -78 14 -144 101 -494 165 -670 10 -29 19
-58 19 -65 0 -7 -26 -39 -58 -72 -218 -225 -436 -515 -610 -810 -91 -156 -247
-477 -307 -630 -25 -66 -50 -129 -55 -140 -26 -57 -111 -328 -158 -505 -19
-71 -83 -363 -96 -442 l-7 -38 3456 0 c3287 0 3456 1 3451 18 -3 9 -8 35 -12
57 -7 42 -11 60 -19 97 -3 13 -8 38 -11 57 -30 180 -188 705 -263 876 -5 11
-26 61 -46 110 -202 486 -518 971 -877 1348 l-65 68 38 115 c52 154 93 312
123 469 22 114 32 181 51 338 23 185 23 594 0 772 -2 17 -6 53 -9 80 -30 291
-119 642 -237 937 -43 109 -142 314 -189 393 -16 28 -37 64 -46 80 -9 17 -50
80 -92 140 -242 355 -550 637 -892 818 -178 93 -449 184 -605 202 -33 4 -64
10 -69 13 -19 11 -383 9 -471 -3z m341 -669 c143 -10 337 -70 490 -151 249
-132 461 -328 669 -620 12 -16 44 -68 72 -115 211 -353 335 -771 370 -1240 12
-168 6 -516 -11 -605 -2 -11 -7 -45 -10 -75 -20 -173 -77 -408 -147 -607 -78
-221 -72 -390 21 -578 41 -85 54 -101 154 -205 285 -297 503 -612 685 -992 87
-182 172 -388 174 -426 l2 -25 -2568 -1 c-1413 -1 -2573 2 -2578 5 -20 12 192
496 297 679 169 294 336 518 545 735 156 161 220 274 245 435 19 124 5 214
-66 427 -36 109 -82 277 -94 348 -3 17 -8 41 -11 55 -6 28 -22 127 -30 180
-13 91 -20 242 -20 415 1 260 13 404 56 620 34 172 87 355 149 510 48 122 165
351 196 386 8 8 14 19 14 22 0 23 190 263 284 360 73 75 226 197 319 255 150
94 368 179 505 198 73 10 186 20 197 18 6 -1 47 -5 91 -8z"/>
</g>
</svg>
