<svg width="32" height="32" viewBox="0 0 32 32" fill="none" xmlns="http://www.w3.org/2000/svg">
<g clip-path="url(#clip0_33_189)">
<path d="M32.0068 16C32.0068 7.16344 24.8434 0 16.0068 0C7.17027 0 0.00683594 7.16344 0.00683594 16C0.00683594 23.9859 5.85777 30.6053 13.5068 31.8056V20.625H9.44434V16H13.5068V12.475C13.5068 8.465 15.8956 6.25 19.5503 6.25C21.3003 6.25 23.1318 6.5625 23.1318 6.5625V10.5H21.1143C19.1268 10.5 18.5068 11.7334 18.5068 13V16H22.9443L22.235 20.625H18.5068V31.8056C26.1559 30.6053 32.0068 23.9859 32.0068 16Z" fill="white"/>
</g>
<defs>
<clipPath id="clip0_33_189">
<rect width="32" height="32" fill="white" transform="translate(0.00683594)"/>
</clipPath>
</defs>
</svg>
