<svg width="32" height="32" viewBox="0 0 32 32" fill="none" xmlns="http://www.w3.org/2000/svg">
<g clip-path="url(#clip0_33_187)">
<path d="M16.0068 2.88125C20.2818 2.88125 20.7881 2.9 22.4693 2.975C24.0318 3.04375 24.8756 3.30625 25.4381 3.525C26.1818 3.8125 26.7193 4.1625 27.2756 4.71875C27.8381 5.28125 28.1818 5.8125 28.4693 6.55625C28.6881 7.11875 28.9506 7.96875 29.0193 9.525C29.0943 11.2125 29.1131 11.7188 29.1131 15.9875C29.1131 20.2625 29.0943 20.7688 29.0193 22.45C28.9506 24.0125 28.6881 24.8563 28.4693 25.4188C28.1818 26.1625 27.8318 26.7 27.2756 27.2563C26.7131 27.8188 26.1818 28.1625 25.4381 28.45C24.8756 28.6688 24.0256 28.9313 22.4693 29C20.7818 29.075 20.2756 29.0938 16.0068 29.0938C11.7318 29.0938 11.2256 29.075 9.54434 29C7.98184 28.9313 7.13809 28.6688 6.57559 28.45C5.83184 28.1625 5.29434 27.8125 4.73809 27.2563C4.17559 26.6938 3.83184 26.1625 3.54434 25.4188C3.32559 24.8563 3.06309 24.0063 2.99434 22.45C2.91934 20.7625 2.90059 20.2563 2.90059 15.9875C2.90059 11.7125 2.91934 11.2062 2.99434 9.525C3.06309 7.9625 3.32559 7.11875 3.54434 6.55625C3.83184 5.8125 4.18184 5.275 4.73809 4.71875C5.30059 4.15625 5.83184 3.8125 6.57559 3.525C7.13809 3.30625 7.98809 3.04375 9.54434 2.975C11.2256 2.9 11.7318 2.88125 16.0068 2.88125ZM16.0068 0C11.6631 0 11.1193 0.01875 9.41309 0.09375C7.71309 0.16875 6.54434 0.44375 5.53184 0.8375C4.47559 1.25 3.58184 1.79375 2.69434 2.6875C1.80059 3.575 1.25684 4.46875 0.844336 5.51875C0.450586 6.5375 0.175586 7.7 0.100586 9.4C0.0255859 11.1125 0.00683594 11.6563 0.00683594 16C0.00683594 20.3438 0.0255859 20.8875 0.100586 22.5938C0.175586 24.2938 0.450586 25.4625 0.844336 26.475C1.25684 27.5313 1.80059 28.425 2.69434 29.3125C3.58184 30.2 4.47559 30.75 5.52559 31.1563C6.54434 31.55 7.70684 31.825 9.40684 31.9C11.1131 31.975 11.6568 31.9937 16.0006 31.9937C20.3443 31.9937 20.8881 31.975 22.5943 31.9C24.2943 31.825 25.4631 31.55 26.4756 31.1563C27.5256 30.75 28.4193 30.2 29.3068 29.3125C30.1943 28.425 30.7443 27.5313 31.1506 26.4813C31.5443 25.4625 31.8193 24.3 31.8943 22.6C31.9693 20.8938 31.9881 20.35 31.9881 16.0063C31.9881 11.6625 31.9693 11.1188 31.8943 9.4125C31.8193 7.7125 31.5443 6.54375 31.1506 5.53125C30.7568 4.46875 30.2131 3.575 29.3193 2.6875C28.4318 1.8 27.5381 1.25 26.4881 0.84375C25.4693 0.45 24.3068 0.175 22.6068 0.1C20.8943 0.01875 20.3506 0 16.0068 0Z" fill="white"/>
<path d="M16.0068 7.78125C11.4693 7.78125 7.78809 11.4625 7.78809 16C7.78809 20.5375 11.4693 24.2187 16.0068 24.2187C20.5443 24.2187 24.2256 20.5375 24.2256 16C24.2256 11.4625 20.5443 7.78125 16.0068 7.78125ZM16.0068 21.3312C13.0631 21.3312 10.6756 18.9437 10.6756 16C10.6756 13.0562 13.0631 10.6687 16.0068 10.6687C18.9506 10.6687 21.3381 13.0562 21.3381 16C21.3381 18.9437 18.9506 21.3312 16.0068 21.3312Z" fill="white"/>
<path d="M26.4693 7.4562C26.4693 8.5187 25.6068 9.37495 24.5506 9.37495C23.4881 9.37495 22.6318 8.51245 22.6318 7.4562C22.6318 6.3937 23.4943 5.53745 24.5506 5.53745C25.6068 5.53745 26.4693 6.39995 26.4693 7.4562Z" fill="white"/>
</g>
<defs>
<clipPath id="clip0_33_187">
<rect width="32" height="32" fill="white" transform="translate(0.00683594)"/>
</clipPath>
</defs>
</svg>
