<svg width="32" height="32" viewBox="0 0 32 32" fill="none" xmlns="http://www.w3.org/2000/svg">
<g clip-path="url(#clip0_33_187)">
<path d="M16.0067 2.88125C20.2817 2.88125 20.788 2.9 22.4692 2.975C24.0317 3.04375 24.8755 3.30625 25.438 3.525C26.1817 3.8125 26.7192 4.1625 27.2755 4.71875C27.838 5.28125 28.1817 5.8125 28.4692 6.55625C28.688 7.11875 28.9505 7.96875 29.0192 9.525C29.0942 11.2125 29.113 11.7188 29.113 15.9875C29.113 20.2625 29.0942 20.7688 29.0192 22.45C28.9505 24.0125 28.688 24.8563 28.4692 25.4188C28.1817 26.1625 27.8317 26.7 27.2755 27.2563C26.713 27.8188 26.1817 28.1625 25.438 28.45C24.8755 28.6688 24.0255 28.9313 22.4692 29C20.7817 29.075 20.2755 29.0938 16.0067 29.0938C11.7317 29.0938 11.2255 29.075 9.54422 29C7.98171 28.9313 7.13796 28.6688 6.57546 28.45C5.83171 28.1625 5.29421 27.8125 4.73796 27.2563C4.17546 26.6938 3.83171 26.1625 3.54421 25.4188C3.32546 24.8563 3.06296 24.0063 2.99421 22.45C2.91921 20.7625 2.90046 20.2563 2.90046 15.9875C2.90046 11.7125 2.91921 11.2062 2.99421 9.525C3.06296 7.9625 3.32546 7.11875 3.54421 6.55625C3.83171 5.8125 4.18171 5.275 4.73796 4.71875C5.30046 4.15625 5.83171 3.8125 6.57546 3.525C7.13796 3.30625 7.98797 3.04375 9.54422 2.975C11.2255 2.9 11.7317 2.88125 16.0067 2.88125ZM16.0067 0C11.663 0 11.1192 0.01875 9.41296 0.09375C7.71296 0.16875 6.54421 0.44375 5.53171 0.8375C4.47546 1.25 3.58171 1.79375 2.69421 2.6875C1.80046 3.575 1.25671 4.46875 0.844214 5.51875C0.450464 6.5375 0.175464 7.7 0.100464 9.4C0.0254639 11.1125 0.00671387 11.6563 0.00671387 16C0.00671387 20.3438 0.0254639 20.8875 0.100464 22.5938C0.175464 24.2938 0.450464 25.4625 0.844214 26.475C1.25671 27.5313 1.80046 28.425 2.69421 29.3125C3.58171 30.2 4.47546 30.75 5.52546 31.1563C6.54421 31.55 7.70671 31.825 9.40671 31.9C11.113 31.975 11.6567 31.9937 16.0005 31.9937C20.3442 31.9937 20.888 31.975 22.5942 31.9C24.2942 31.825 25.463 31.55 26.4755 31.1563C27.5255 30.75 28.4192 30.2 29.3067 29.3125C30.1942 28.425 30.7442 27.5313 31.1505 26.4813C31.5442 25.4625 31.8192 24.3 31.8942 22.6C31.9692 20.8938 31.988 20.35 31.988 16.0063C31.988 11.6625 31.9692 11.1188 31.8942 9.4125C31.8192 7.7125 31.5442 6.54375 31.1505 5.53125C30.7567 4.46875 30.213 3.575 29.3192 2.6875C28.4317 1.8 27.538 1.25 26.488 0.84375C25.4692 0.45 24.3067 0.175 22.6067 0.1C20.8942 0.01875 20.3505 0 16.0067 0Z" fill="white"/>
<path d="M16.0067 7.78125C11.4692 7.78125 7.78796 11.4625 7.78796 16C7.78796 20.5375 11.4692 24.2187 16.0067 24.2187C20.5442 24.2187 24.2255 20.5375 24.2255 16C24.2255 11.4625 20.5442 7.78125 16.0067 7.78125ZM16.0067 21.3312C13.063 21.3312 10.6755 18.9437 10.6755 16C10.6755 13.0562 13.063 10.6687 16.0067 10.6687C18.9505 10.6687 21.338 13.0562 21.338 16C21.338 18.9437 18.9505 21.3312 16.0067 21.3312Z" fill="white"/>
<path d="M26.4692 7.4562C26.4692 8.5187 25.6067 9.37495 24.5505 9.37495C23.488 9.37495 22.6317 8.51245 22.6317 7.4562C22.6317 6.3937 23.4942 5.53745 24.5505 5.53745C25.6067 5.53745 26.4692 6.39995 26.4692 7.4562Z" fill="white"/>
</g>
<defs>
<clipPath id="clip0_33_187">
<rect width="32" height="32" fill="white" transform="translate(0.00671387)"/>
</clipPath>
</defs>
</svg>
