<svg width="39" height="32" viewBox="0 0 39 32" fill="none" xmlns="http://www.w3.org/2000/svg">
<mask id="path-1-inside-1_39_60" fill="white">
<path fill-rule="evenodd" clip-rule="evenodd" d="M32.8791 14.1091C32.8791 16.2861 32.4081 18.3479 31.567 20.189C35.1456 23.0857 37.7558 27.2304 38.8022 32H0.00012207C1.04655 27.2304 3.65668 23.0857 7.23536 20.189C6.39423 18.3479 5.92324 16.2861 5.92324 14.1091C5.92324 6.31685 11.9575 0 19.4012 0C26.8448 0 32.8791 6.31685 32.8791 14.1091Z"/>
</mask>
<path d="M31.567 20.189L29.6341 19.3059C29.2312 20.1878 29.4763 21.2307 30.23 21.8407L31.567 20.189ZM38.8022 32V34.125C39.4458 34.125 40.0546 33.8333 40.458 33.3319C40.8614 32.8304 41.0158 32.1732 40.8778 31.5446L38.8022 32ZM0.00012207 32L-2.07551 31.5446C-2.21342 32.1732 -2.05904 32.8304 -1.65567 33.3319C-1.25231 33.8333 -0.64343 34.125 0.00012207 34.125L0.00012207 32ZM7.23536 20.189L8.57233 21.8407C9.32597 21.2307 9.57111 20.1879 9.1682 19.3059L7.23536 20.189ZM33.4998 21.072C34.4659 18.9573 35.0041 16.5946 35.0041 14.1091H30.7541C30.7541 15.9775 30.3502 17.7385 29.6341 19.3059L33.4998 21.072ZM40.8778 31.5446C39.7282 26.3048 36.8581 21.738 32.9039 18.5373L30.23 21.8407C33.4332 24.4335 35.7833 28.156 36.7266 32.4554L40.8778 31.5446ZM0.00012207 34.125H38.8022V29.875H0.00012207V34.125ZM5.89839 18.5373C1.9442 21.738 -0.925922 26.3048 -2.07551 31.5446L2.07575 32.4554C3.01903 28.156 5.36915 24.4335 8.57233 21.8407L5.89839 18.5373ZM3.79824 14.1091C3.79824 16.5946 4.33637 18.9573 5.30252 21.072L9.1682 19.3059C8.45208 17.7385 8.04824 15.9775 8.04824 14.1091H3.79824ZM19.4012 -2.125C10.6933 -2.125 3.79824 5.23594 3.79824 14.1091H8.04824C8.04824 7.39776 13.2217 2.125 19.4012 2.125V-2.125ZM35.0041 14.1091C35.0041 5.23594 28.109 -2.125 19.4012 -2.125V2.125C25.5806 2.125 30.7541 7.39776 30.7541 14.1091H35.0041Z" fill="white" mask="url(#path-1-inside-1_39_60)"/>
</svg>
