<svg width="39" height="32" viewBox="0 0 39 32" fill="none" xmlns="http://www.w3.org/2000/svg">
<mask id="path-1-inside-1_39_60" fill="white">
<path fill-rule="evenodd" clip-rule="evenodd" d="M32.8789 14.1091C32.8789 16.2861 32.408 18.3479 31.5668 20.189C35.1455 23.0857 37.7557 27.2304 38.8021 32H0C1.04643 27.2304 3.65655 23.0857 7.23524 20.189C6.39411 18.3479 5.92312 16.2861 5.92312 14.1091C5.92312 6.31685 11.9574 0 19.401 0C26.8447 0 32.8789 6.31685 32.8789 14.1091Z"/>
</mask>
<path d="M31.5668 20.189L29.634 19.3059C29.2311 20.1878 29.4762 21.2307 30.2299 21.8407L31.5668 20.189ZM38.8021 32V34.125C39.4456 34.125 40.0545 33.8333 40.4579 33.3319C40.8612 32.8304 41.0156 32.1732 40.8777 31.5446L38.8021 32ZM0 32L-2.07563 31.5446C-2.21355 32.1732 -2.05916 32.8304 -1.6558 33.3319C-1.25243 33.8333 -0.643552 34.125 0 34.125L0 32ZM7.23524 20.189L8.57221 21.8407C9.32585 21.2307 9.57099 20.1879 9.16807 19.3059L7.23524 20.189ZM33.4997 21.072C34.4658 18.9573 35.0039 16.5946 35.0039 14.1091H30.7539C30.7539 15.9775 30.3501 17.7385 29.634 19.3059L33.4997 21.072ZM40.8777 31.5446C39.7281 26.3048 36.858 21.738 32.9038 18.5373L30.2299 21.8407C33.433 24.4335 35.7832 28.156 36.7265 32.4554L40.8777 31.5446ZM0 34.125H38.8021V29.875H0V34.125ZM5.89827 18.5373C1.94408 21.738 -0.926044 26.3048 -2.07563 31.5446L2.07563 32.4554C3.0189 28.156 5.36903 24.4335 8.57221 21.8407L5.89827 18.5373ZM3.79812 14.1091C3.79812 16.5946 4.33625 18.9573 5.3024 21.072L9.16807 19.3059C8.45196 17.7385 8.04812 15.9775 8.04812 14.1091H3.79812ZM19.401 -2.125C10.6932 -2.125 3.79812 5.23594 3.79812 14.1091H8.04812C8.04812 7.39776 13.2216 2.125 19.401 2.125V-2.125ZM35.0039 14.1091C35.0039 5.23594 28.1089 -2.125 19.401 -2.125V2.125C25.5805 2.125 30.7539 7.39776 30.7539 14.1091H35.0039Z" fill="white" mask="url(#path-1-inside-1_39_60)"/>
</svg>
