<svg width="32" height="32" viewBox="0 0 32 32" fill="none" xmlns="http://www.w3.org/2000/svg">
<path fill-rule="evenodd" clip-rule="evenodd" d="M16.0067 0C7.17374 0 0.00671387 7.16703 0.00671387 16C0.00671387 24.833 7.17374 32 16.0067 32C24.8223 32 32.0067 24.833 32.0067 16C32.0067 7.16703 24.8223 0 16.0067 0ZM26.575 7.37527C28.4839 9.70065 29.6293 12.6681 29.664 15.8785C29.2128 15.7918 24.7008 14.872 20.1542 15.4447C20.0501 15.2191 19.9633 14.9761 19.8592 14.7332C19.5815 14.0738 19.2692 13.397 18.9568 12.7549C23.9893 10.7072 26.28 7.75705 26.575 7.37527ZM16.0067 2.36009C19.4774 2.36009 22.6531 3.66161 25.0653 5.7961C24.8223 6.14317 22.7572 8.90239 17.8982 10.7245C15.6596 6.61171 13.1781 3.24512 12.7963 2.72451C13.8201 2.48156 14.8961 2.36009 16.0067 2.36009ZM10.1933 3.64425C10.5577 4.13015 12.9872 7.5141 15.2605 11.5401C8.87439 13.2408 3.23448 13.2061 2.6271 13.2061C3.51213 8.9718 6.37547 5.44902 10.1933 3.64425ZM2.33209 16.0174C2.33209 15.8785 2.33209 15.7397 2.33209 15.6009C2.92211 15.6182 9.55118 15.705 16.3711 13.6573C16.7703 14.4208 17.1347 15.2017 17.4818 15.9826C17.3082 16.0347 17.1173 16.0868 16.9438 16.1388C9.89825 18.4121 6.14988 24.6247 5.83751 25.1453C3.66831 22.7332 2.33209 19.5228 2.33209 16.0174ZM16.0067 29.6746C12.8483 29.6746 9.93296 28.5987 7.62493 26.7939C7.86788 26.2907 10.6444 20.9458 18.3494 18.256C18.3841 18.2386 18.4015 18.2386 18.4362 18.2213C20.3624 23.2017 21.1434 27.3839 21.3516 28.5813C19.703 29.2928 17.8982 29.6746 16.0067 29.6746ZM23.6249 27.3319C23.4861 26.4989 22.7572 22.5076 20.9698 17.5965C25.2562 16.9197 29.0045 18.0304 29.4731 18.1866C28.8831 21.987 26.6965 25.2668 23.6249 27.3319Z" fill="white"/>
</svg>
