<svg width="32" height="32" viewBox="0 0 32 32" fill="none" xmlns="http://www.w3.org/2000/svg">
<path fill-rule="evenodd" clip-rule="evenodd" d="M2.25613 2.24942C0.00671387 4.49884 0.00671387 8.1192 0.00671387 15.36V16.64C0.00671387 23.8808 0.00671387 27.5011 2.25613 29.7506C4.50555 32 8.12591 32 15.3667 32H16.6467C23.8875 32 27.5078 32 29.7573 29.7506C32.0067 27.5011 32.0067 23.8808 32.0067 16.64V15.36C32.0067 8.1192 32.0067 4.49884 29.7573 2.24942C27.5078 0 23.8875 0 16.6467 0H15.3667C8.12591 0 4.50555 0 2.25613 2.24942ZM5.40679 9.7334C5.58013 18.0534 9.74011 23.0534 17.0334 23.0534H17.4468V18.2934C20.1268 18.5601 22.1534 20.5201 22.9667 23.0534H26.7534C25.7134 19.2667 22.98 17.1734 21.2733 16.3734C22.98 15.3867 25.38 12.9867 25.9533 9.7334H22.5132C21.7666 12.3734 19.5535 14.7734 17.4468 15.0001V9.7334H14.0067V18.9601C11.8734 18.4267 9.18011 15.8401 9.06011 9.7334H5.40679Z" fill="white"/>
</svg>
